<?xml version="1.0" encoding="iso-8859-1"?>
<!-- Uploaded to: SVG Repo, www.svgrepo.com, Generator: SVG Repo Mixer Tools -->
<svg height="800px" width="800px" version="1.1" id="Layer_1" xmlns="http://www.w3.org/2000/svg" xmlns:xlink="http://www.w3.org/1999/xlink" 
	 viewBox="0 0 432.8 432.8" xml:space="preserve">
<path style="fill:#6DABFF;" d="M248.8,0c-8,0-15.2,4.8-18.4,11.2l-143.2,80C68.8,85.6,48.8,80.8,40,80.8h-2.4
	c-19.2,0-31.2,17.6-31.2,36.8V316c0,19.2,12,36.8,31.2,36.8h3.2c8.8,0,28.8-4.8,47.2-10.4l142.4,80c3.2,6.4,11.2,10.4,19.2,10.4
	c11.2,0,21.6-9.6,21.6-20.8V20C270.4,9.6,260.8,0,248.8,0z"/>
<path style="fill:#5389d4;" d="M230.4,11.2C230.4,12,230.4,11.2,230.4,11.2l-143.2,80C68.8,85.6,49.6,80.8,40,80.8h-2.4
	c-19.2,0-31.2,17.6-31.2,36.8v107.2h190.4c19.2,0,33.6-17.6,33.6-36.8V11.2z"/>
<g>
	<path style="fill:#C11F05;" d="M410.4,262.4c-4,0-8-1.6-11.2-4.8L317.6,176c-6.4-6.4-6.4-16,0-22.4s16-6.4,22.4,0l81.6,81.6
		c6.4,6.4,6.4,16,0,22.4C418.4,260.8,414.4,262.4,410.4,262.4z"/>
	<path style="fill:#C11F05;" d="M328.8,262.4c-4,0-8-1.6-11.2-4.8c-6.4-6.4-6.4-16,0-22.4l81.6-81.6c6.4-6.4,16-6.4,22.4,0
		s6.4,16,0,22.4L340,257.6C336.8,260.8,332.8,262.4,328.8,262.4z"/>
</g>
<g>
	<path style="fill:#9B0F00;" d="M399.2,257.6c3.2,3.2,7.2,4.8,11.2,4.8s8-1.6,11.2-4.8c6.4-6.4,6.4-16,0-22.4l-38.4-38.4l-22.4,22.4
		L399.2,257.6z"/>
	<path style="fill:#9B0F00;" d="M423.2,156L320,259.2c2.4,1.6,5.6,2.4,8.8,2.4c4,0,8-1.6,11.2-4.8l81.6-81.6
		C427.2,170.4,427.2,162.4,423.2,156z"/>
</g>
</svg>