<svg class="svg-icon" style="width: auto; height: auto;vertical-align: middle;fill: currentColor;overflow: hidden;" viewBox="0 0 624 624" version="1.1" xmlns="http://www.w3.org/2000/svg">
  <path d="M456.4 658.6c-18.8 0-35.5-9.7-44.4-25.5-8.9 15.8-25.6 25.5-44.4 25.5-14.2 0-27.8-5.6-37.5-15.3-7.7-7.8-12.4-17.7-13.6-28.5-9 6.7-19.6 10.2-30.7 10.2-17.9 0-34.9-9.3-44.2-24.3-7.4-11.8-9.1-25.5-5.1-38.6-3.7 0.8-7.4 1.2-11.1 1.2-21.5 0-40.7-13.5-47.9-33.5-5.8-16.3-2.4-33.8 8.6-46.8-21.1-4.9-36.6-21.8-38.7-43.3-2-20.8 9.2-39.8 28-48.8-15.3-11.7-22.2-30.7-17.6-49.6 5.5-22.3 25.6-37.8 48.9-38-7.3-13.4-7.8-29-1-43 8.5-17.6 26.7-28.9 46.3-28.9 7.3 0 14.7 1.6 21.6 4.7-1.1-12.1 2.4-24.1 10-33.7 9.7-12.3 25.2-19.7 41.3-19.7 14.9 0 28.7 6.3 38.4 17.3 6.6-20.5 26-34.4 48.7-34.4 22.7 0 42.1 13.9 48.7 34.4 9.7-11 23.5-17.3 38.4-17.3 16.1 0 31.6 7.4 41.3 19.7 7.6 9.6 11.1 21.7 10 33.8 6.7-3.1 14.2-4.8 21.6-4.8 19.7 0 37.9 11.4 46.3 28.9 6.8 14.1 6.3 29.6-1 43 23.4 0.2 43.4 15.7 48.9 38 4.7 18.9-2.3 37.9-17.6 49.6 18.8 8.9 30.1 27.9 28.1 48.7-2.1 21.5-17.6 38.4-38.7 43.3 11 13 14.4 30.6 8.6 46.8-7.2 20.1-26.4 33.5-47.9 33.5-3.7 0-7.4-0.4-11.1-1.2 4 13.1 2.2 26.8-5.1 38.6-9.3 15-26.3 24.3-44.2 24.3-11.2 0-21.7-3.5-30.7-10.2-1.2 10.8-5.9 20.8-13.6 28.5-9.8 9.8-23.4 15.4-37.6 15.4z" fill="#FFFFFF" transform="translate(-100, -100)" />
  <path d="M412 192.1c10.6 0 21.2 6 23.9 18.1 2.5 11.6 13.2 18.1 24 18.1 7.3 0 14.7-3 19.7-9.5 5.1-6.7 12.3-9.6 19.4-9.6 14.2 0 28 11.6 24.2 27.6-3.6 15.1 9.3 27.6 23.8 27.6 4.1 0 8.3-1 12.4-3.2 4.2-2.3 8.5-3.3 12.5-3.3 18.1 0 32.3 20.1 19.4 36.2-12.1 15.1-0.1 36.1 19.4 36.1 1 0 1.9-0.1 2.9-0.2 1.1-0.1 2.1-0.2 3.1-0.2 24.1 0 33.8 30.7 11.6 42.3-18.5 9.7-15.6 35.3 4.7 41.2 25.3 7.4 21.4 41.7-5 44.1-21.2 1.9-29.8 26.3-13.8 39.4 17.6 14.5 5 39.7-15.7 39.7-2.6 0-5.4-0.4-8.2-1.3-2.7-0.8-5.3-1.2-7.9-1.2-16.7 0-29.7 16.4-22 32 8.2 16.7-6.3 32.2-22.4 32.2-5.5 0-11.2-1.8-16.3-6.1-4.9-4.1-10.6-6-16.3-6-12.6 0-24.7 9.2-24.5 22.9 0.1 14.4-12.2 22.8-24.7 22.8-8.8 0-17.7-4.2-22-13.6-4.2-9.1-13.3-13.6-22.3-13.6-9.1 0-18.1 4.5-22.3 13.6-4.4 9.4-13.2 13.6-22 13.6-12.4 0-24.8-8.4-24.7-22.8 0.1-13.6-11.9-22.9-24.5-22.9-5.7 0-11.4 1.9-16.3 6-5 4.3-10.7 6.1-16.3 6.1-16 0-30.6-15.5-22.4-32.2 7.7-15.6-5.3-32-22-32-2.6 0-5.2 0.4-7.9 1.2-2.8 0.9-5.6 1.3-8.2 1.3-20.7 0-33.3-25.2-15.7-39.7 16-13.1 7.4-37.5-13.8-39.4-26.4-2.4-30.3-36.7-5-44.1 20.3-5.9 23.2-31.5 4.7-41.2-22.2-11.6-12.5-42.3 11.6-42.3 1 0 2.1 0.1 3.1 0.2s2 0.2 2.9 0.2c19.5 0 31.5-20.9 19.4-36.1-12.9-16.2 1.3-36.2 19.4-36.2 4.1 0 8.3 1 12.5 3.3 4 2.2 8.3 3.2 12.4 3.2 14.5 0 27.4-12.5 23.8-27.6-3.8-16 10-27.6 24.2-27.6 7.1 0 14.3 2.9 19.4 9.6 5 6.5 12.4 9.5 19.7 9.5 10.8 0 21.5-6.6 24-18.1 2.9-12.1 13.5-18.1 24.1-18.1m0-53.3c-22.1 0-42.1 8.8-56.3 23.4-9.5-4.1-20-6.3-30.7-6.3-24.2 0-47.5 11.1-62.2 29.8-4.6 5.8-8.2 12.2-10.8 18.9-29.8 0.1-57.3 17.3-70.2 44-5.4 11.2-7.8 23.2-7.3 35-20.8 9.5-36.8 28-42.5 51.2-4.5 18.2-2.1 36.4 5.9 51.9-12.6 15-19.1 34.6-17 55.5 2.1 21.8 13.1 40.5 29.5 52.9-3.7 14-3.1 29.1 2 43.6 9.1 25.4 30.7 43.8 56.5 49.4 1.6 9.3 5 18.3 10.1 26.6 14.2 22.7 39.8 36.9 66.9 36.9 5.3 0 10.5-0.5 15.7-1.6 2.8 4.3 6 8.3 9.7 12 14.6 14.7 35.1 23.2 56.4 23.2 16.4 0 31.7-4.9 44.4-13.6 12.7 8.7 28 13.6 44.4 13.6 21.3 0 41.8-8.4 56.4-23.2 3.7-3.7 6.9-7.7 9.7-12 5.1 1.1 10.4 1.6 15.7 1.6 27.1 0 52.7-14.1 66.9-36.9 5.2-8.3 8.5-17.3 10.1-26.6 25.7-5.6 47.4-24.1 56.5-49.4 5.2-14.5 5.7-29.5 2-43.6 16.4-12.4 27.3-31.1 29.5-52.9 2-20.8-4.4-40.5-17-55.5 8-15.5 10.4-33.7 5.9-51.9-5.7-23.2-21.7-41.6-42.5-51.2 0.5-11.9-1.9-23.9-7.3-35-12.9-26.7-40.4-44-70.2-44-2.6-6.7-6.3-13.1-10.8-18.9-14.7-18.7-38-29.8-62.2-29.8-10.8 0-21.2 2.2-30.7 6.3-14.4-14.6-34.4-23.4-56.5-23.4z" fill="#262626" transform="translate(-100, -100)" />
  <path d="M425.4 554.2c-32.5 0-65.4-9.1-94.6-28.3-31.8-20.9-53.6-52.9-61.3-90.1s-0.5-75.3 20.4-107.1c17.3-26.4 43.9-44.4 74.8-50.8 30.9-6.4 62.4-0.4 88.8 16.9 22 14.5 37.1 36.6 42.5 62.4 5.3 25.8 0.3 52.1-14.1 74.2-25.1 38.3-76.8 49-115.1 23.9-32.6-21.4-41.7-65.3-20.3-97.8 6.3-9.6 19.2-12.3 28.9-6 9.6 6.3 12.3 19.3 6 28.9-8.8 13.3-5 31.3 8.3 40.1 9.2 6.1 20.3 8.2 31.1 5.9 10.8-2.2 20.1-8.6 26.2-17.8 8.3-12.7 11.2-27.9 8.2-42.8s-11.8-27.7-24.5-36c-17.1-11.2-37.4-15.1-57.4-10.9-20 4.1-37.1 15.8-48.3 32.9-14.8 22.5-19.9 49.4-14.4 75.7 5.5 26.3 20.8 49 43.3 63.7 60.4 39.7 141.9 22.8 181.5-37.6 6.3-9.6 19.2-12.3 28.9-6 9.6 6.3 12.3 19.3 6 28.9-33.4 50.3-88.6 77.7-144.9 77.7z" fill="#6DABFF" transform="translate(-100, -100)" />
</svg>